{
  "accessors": [
    {
      "bufferView": 2,
      "componentType": 5126,
      "count": 235,
      "max": [
        0.52643513679504395,
        0.45590585470199585,
        1.8935189247131348
      ],
      "min": [
        -0.28262031078338623,
        -0.45590668916702271,
        1.5409789085388184
      ],
      "type": "VEC3"
    },
    {
      "bufferView": 2,
      "byteOffset": 2820,
      "componentType": 5126,
      "count": 235,
      "max": [
        0.99144500494003296,
        0.99144494533538818,
        0.99786198139190674
      ],
      "min": [
        -0.99979746341705322,
        -0.99144482612609863,
        -0.99884706735610962
      ],
      "type": "VEC3"
    },
    {
      "bufferView": 3,
      "componentType": 5126,
      "count": 235,
      "max": [
        0.9522210955619812,
        0.99999725818634033,
        0.99999982118606567,
        1
      ],
      "min": [
        -0.99597448110580444,
        -0.99490165710449219,
        -0.96425646543502808,
        1
      ],
      "type": "VEC4"
    },
    {
      "bufferView": 1,
      "componentType": 5126,
      "count": 235,
      "max": [
        1,
        1
      ],
      "min": [
        0,
        0
      ],
      "type": "VEC2"
    },
    {
      "bufferView": 0,
      "componentType": 5125,
      "count": 642,
      "max": [
        234
      ],
      "min": [
        0
      ],
      "type": "SCALAR"
    },
    {
      "bufferView": 2,
      "byteOffset": 5640,
      "componentType": 5126,
      "count": 118,
      "max": [
        0.96588528156280518,
        0.98078501224517822,
        1.8548042774200439
      ],
      "min": [
        -0.96588504314422607,
        -0.92163729667663574,
        -1
      ],
      "type": "VEC3"
    },
    {
      "bufferView": 2,
      "byteOffset": 7056,
      "componentType": 5126,
      "count": 118,
      "max": [
        0.97731584310531616,
        0.99239253997802734,
        1
      ],
      "min": [
        -0.97731584310531616,
        -0.93254387378692627,
        -1
      ],
      "type": "VEC3"
    },
    {
      "bufferView": 3,
      "byteOffset": 3760,
      "componentType": 5126,
      "count": 118,
      "max": [
        0.95812904834747314,
        0.65377610921859741,
        0.91682446002960205,
        1
      ],
      "min": [
        -0.94007390737533569,
        -0.98629051446914673,
        -0.67411565780639648,
        1
      ],
      "type": "VEC4"
    },
    {
      "bufferView": 1,
      "byteOffset": 1880,
      "componentType": 5126,
      "count": 118,
      "max": [
        1,
        0.99999994039535522
      ],
      "min": [
        0,
        0
      ],
      "type": "VEC2"
    },
    {
      "bufferView": 0,
      "byteOffset": 2568,
      "componentType": 5125,
      "count": 432,
      "max": [
        117
      ],
      "min": [
        0
      ],
      "type": "SCALAR"
    }
  ],
  "asset": {
    "extras": {
      "author": "Batuhan13 (https://sketchfab.com/Batuhan13)",
      "license": "CC-BY-4.0 (http://creativecommons.org/licenses/by/4.0/)",
      "source": "https://sketchfab.com/3d-models/harry-potter-golden-egg-eef76c862cef425498d3cce879787cf6",
      "title": "Harry Potter Golden Egg"
    },
    "generator": "Sketchfab-6.82.0",
    "version": "2.0"
  },
  "bufferViews": [
    {
      "buffer": 0,
      "byteLength": 4296,
      "byteOffset": 0,
      "name": "floatBufferViews",
      "target": 34963
    },
    {
      "buffer": 0,
      "byteLength": 2824,
      "byteOffset": 4296,
      "byteStride": 8,
      "name": "floatBufferViews",
      "target": 34962
    },
    {
      "buffer": 0,
      "byteLength": 8472,
      "byteOffset": 7120,
      "byteStride": 12,
      "name": "floatBufferViews",
      "target": 34962
    },
    {
      "buffer": 0,
      "byteLength": 5648,
      "byteOffset": 15592,
      "byteStride": 16,
      "name": "floatBufferViews",
      "target": 34962
    }
  ],
  "buffers": [
    {
      "byteLength": 21240,
      "uri": "scene.bin"
    }
  ],
  "images": [
    {
      "uri": "textures/material_baseColor.png"
    },
    {
      "uri": "textures/material_metallicRoughness.png"
    },
    {
      "uri": "textures/material_normal.png"
    },
    {
      "uri": "textures/material_1_baseColor.png"
    },
    {
      "uri": "textures/material_1_metallicRoughness.png"
    },
    {
      "uri": "textures/material_1_normal.png"
    }
  ],
  "materials": [
    {
      "doubleSided": true,
      "emissiveFactor": [
        0,
        0,
        0
      ],
      "name": "material",
      "normalTexture": {
        "index": 2,
        "scale": 1,
        "texCoord": 0
      },
      "pbrMetallicRoughness": {
        "baseColorFactor": [
          1,
          1,
          1,
          1
        ],
        "baseColorTexture": {
          "index": 0,
          "texCoord": 0
        },
        "metallicFactor": 1,
        "metallicRoughnessTexture": {
          "index": 1,
          "texCoord": 0
        },
        "roughnessFactor": 0.23196970621744792
      }
    },
    {
      "doubleSided": true,
      "emissiveFactor": [
        0,
        0,
        0
      ],
      "name": "material_1",
      "normalTexture": {
        "index": 5,
        "scale": 1,
        "texCoord": 0
      },
      "pbrMetallicRoughness": {
        "baseColorFactor": [
          1,
          1,
          1,
          1
        ],
        "baseColorTexture": {
          "index": 3,
          "texCoord": 0
        },
        "metallicFactor": 1,
        "metallicRoughnessTexture": {
          "index": 4,
          "texCoord": 0
        },
        "roughnessFactor": 0.20772728197502369
      }
    }
  ],
  "meshes": [
    {
      "name": "Sphere.002_Top_0",
      "primitives": [
        {
          "attributes": {
            "NORMAL": 1,
            "POSITION": 0,
            "TANGENT": 2,
            "TEXCOORD_0": 3
          },
          "indices": 4,
          "material": 0,
          "mode": 4
        }
      ]
    },
    {
      "name": "Sphere.005_Egg_0",
      "primitives": [
        {
          "attributes": {
            "NORMAL": 6,
            "POSITION": 5,
            "TANGENT": 7,
            "TEXCOORD_0": 8
          },
          "indices": 9,
          "material": 1,
          "mode": 4
        }
      ]
    }
  ],
  "nodes": [
    {
      "children": [
        1
      ],
      "name": "RootNode (gltf orientation matrix)",
      "rotation": [
        -0.70710678118654746,
        -0,
        -0,
        0.70710678118654757
      ]
    },
    {
      "children": [
        2
      ],
      "name": "RootNode (model correction matrix)"
    },
    {
      "children": [
        3
      ],
      "matrix": [
        1,
        0,
        0,
        0,
        0,
        0,
        1,
        0,
        0,
        -1,
        0,
        0,
        0,
        0,
        0,
        1
      ],
      "name": "EggLow.fbx"
    },
    {
      "children": [
        4,
        6
      ],
      "name": "RootNode"
    },
    {
      "children": [
        5
      ],
      "matrix": [
        141.27085876464844,
        0,
        0,
        0,
        0,
        -2.3015944288203985e-05,
        -141.27085876464656,
        0,
        0,
        141.27085876464656,
        -2.3015944288203985e-05,
        0,
        300,
        -52.503879547119141,
        8.5318803787231445,
        1
      ],
      "name": "Sphere.002"
    },
    {
      "mesh": 0,
      "name": "Sphere.002_Top_0"
    },
    {
      "children": [
        7
      ],
      "matrix": [
        141.27085876464844,
        0,
        0,
        0,
        0,
        -2.3015944288203985e-05,
        -141.27085876464656,
        0,
        0,
        141.27085876464656,
        -2.3015944288203985e-05,
        0,
        300,
        -52.503879547119141,
        8.5318803787231445,
        1
      ],
      "name": "Sphere.005"
    },
    {
      "mesh": 1,
      "name": "Sphere.005_Egg_0"
    }
  ],
  "samplers": [
    {
      "magFilter": 9729,
      "minFilter": 9987,
      "wrapS": 10497,
      "wrapT": 10497
    }
  ],
  "scene": 0,
  "scenes": [
    {
      "name": "OSG_Scene",
      "nodes": [
        0
      ]
    }
  ],
  "textures": [
    {
      "sampler": 0,
      "source": 0
    },
    {
      "sampler": 0,
      "source": 1
    },
    {
      "sampler": 0,
      "source": 2
    },
    {
      "sampler": 0,
      "source": 3
    },
    {
      "sampler": 0,
      "source": 4
    },
    {
      "sampler": 0,
      "source": 5
    }
  ]
}

